<svg height="2000pt" preserveAspectRatio="xMidYMid meet" viewBox="0 0 2000 2000" width="400pt" xmlns="http://www.w3.org/2000/svg"><path d="m617 17103c-4-3-7-3122-7-6930v-6923h9215 9215l-2 6928-3 6927-9206 3c-5063 1-9209-1-9212-5zm16313-1231c0-4-1495-1502-3322-3328-2317-2315-3342-3334-3387-3364-78-52-211-115-271-129-66-15-197-13-263 4s-177 71-262 128c-40 26-1188 1167-3382 3361-1828 1826-3323 3324-3323 3328 0 5 3197 8 7105 8s7105-3 7105-8zm-12668-3279c1325-1325 2408-2412 2408-2418 0-11-4811-4825-4822-4825-5 0-8 2171-8 4825s3 4825 7 4825c5 0 1091-1083 2415-2407zm13548-2418c0-2654-3-4825-7-4825-12 0-4823 4814-4823 4825s4811 4825 4822 4825c5 0 8-2171 8-4825zm-9755-1375c310-311 532-525 585-565 270-202 561-336 861-397 98-20 144-23 324-23 159 0 232 5 300 18 290 57 553 171 820 355 95 66 179 145 630 594 286 285 525 518 530 518 12 0 4825-4811 4825-4822 0-5-3197-8-7105-8s-7105 3-7105 7c0 12 4814 4823 4825 4823 6 0 235-225 510-500z" transform="matrix(.1 0 0 -.1 0 2000)"/></svg>