<svg class="svg" height="225pt" preserveAspectRatio="xMidYMid meet" viewBox="0 0 225 225" width="225pt" xmlns="http://www.w3.org/2000/svg"><g transform="matrix(.1 0 0 -.1 0 225)"><path d="m5 1125c0-622 1-874 2-562 2 313 2 821 0 1130-1 309-2 54-2-568z"/><path d="m2245 1125c0-622 1-874 2-562 2 313 2 821 0 1130-1 309-2 54-2-568z"/><path d="m500 1853c-101-38-141-169-81-264 35-56 81-79 154-79 97 0 167 74 167 175 0 62-24 111-73 146-33 24-49 29-96 28-31 0-63-3-71-6z"/><path d="m1427 1389c-58-14-115-46-168-96l-49-46v62 61h-145-145v-495-496l143 3 142 3 5 300c3 165 9 309 14 320 35 79 92 115 178 115 69 0 109-25 139-87 23-47 24-55 27-350l4-303h149 149v338c0 356-7 428-48 509-22 43-94 113-138 136-65 33-179 45-257 26z"/><path d="m420 875v-495h150 150v495 495h-150-150z"/></g></svg>