<svg height="600pt" preserveAspectRatio="xMidYMid meet" viewBox="0 0 600 600" width="600pt" xmlns="http://www.w3.org/2000/svg"><g transform="matrix(.1 0 0 -.1 0 600)"><path d="m2800 5994c-19-2-82-9-140-15-147-15-371-62-527-109-463-140-869-381-1222-724-501-489-802-1098-892-1806-18-138-18-542 0-680 87-682 367-1268 835-1749 489-501 1098-802 1806-892 138-18 542-18 680 0 708 90 1317 391 1806 892 468 481 748 1067 835 1749 18 138 18 542 0 680-87 682-367 1268-835 1749-480 492-1074 791-1763 886-102 15-508 28-583 19zm589-363c949-144 1740-775 2089-1667 125-320 176-601 176-964 0-227-8-325-45-515-205-1051-1043-1889-2094-2094-190-37-288-45-515-45s-325 8-515 45c-997 195-1810 962-2060 1946-62 244-79 384-79 663s17 419 79 663c263 1032 1138 1818 2190 1967 197 28 206 28 435 24 139-2 248-9 339-23z"/><path d="m2200 4915c0-15 258-1015 286-1107 3-10 11-18 18-18 8 0 61 36 119 80l105 80-94 368c-52 202-105 409-118 460-13 52-27 96-30 99-13 14-286 50-286 38z"/><path d="m2014 4809c-146-118-206-173-295-274-167-191-184-241-183-540 1-260 41-513 125-795 61-203 197-522 280-656 23-38 69-114 102-169 177-296 368-535 586-732 127-115 206-174 426-318 219-144 260-166 387-209 166-57 233-50 538 56 154 53 280 109 299 132 10 11-36 56-251 248-311 278-567 498-578 498-4 0-15-33-25-73-25-106-25-106-48-127-27-26-77-25-111 1-38 30-133 175-366 559-111 184-224 366-250 405-140 208-464 756-508 862-28 66-28 75 4 112 31 37 50 38 155 9 44-11 82-19 85-15 8 8-12 94-117 502-110 428-151 578-159 588-3 4-46-25-96-64z"/><path d="m3675 2247c-124-57-176-88-173-101s291-266 671-589l197-168 19 43c10 24 33 82 51 130 29 76 31 89 19 104-22 27-699 614-707 614-4 0-38-15-77-33z"/></g></svg>