<svg height="225pt" preserveAspectRatio="xMidYMid meet" viewBox="0 0 225 225" width="225pt" xmlns="http://www.w3.org/2000/svg"><path d="m1405 2007c-123-47-203-122-264-247-34-72-36-80-36-183v-109l-60 7c-303 33-554 151-779 366-58 55-110 98-115 94-21-12-51-137-51-209 0-137 48-254 142-342l47-44h-32c-28 1-91 19-150 45-17 7-18 4-12-51 20-165 142-322 292-376 76-27 64-36-50-37-76-1-78-2-72-23 38-128 209-266 350-283 30-4 55-11 55-15 0-16-149-101-227-129-114-42-218-61-335-61h-103l62-35c90-51 248-113 355-137 128-30 440-32 568-4 256 56 461 167 640 346 233 233 366 528 390 871l9 128 76 73c78 74 141 146 133 153-2 2-37-6-78-19s-93-27-115-31l-40-7 66 69c61 63 131 173 111 173-5 0-38-13-73-29-85-38-198-73-212-64-7 4-30 21-53 40-22 18-67 45-100 60-51 24-74 28-169 30-95 3-118 0-170-20z" transform="matrix(.1 0 0 -.1 0 225)"/></svg>